<svg width="170" height="36" xmlns="http://www.w3.org/2000/svg">
    <path d="M63.26 22.77c0 1.49-.59 2.68-1.78 3.58a6.33 6.33 0 0 1-3.94 1.23c-.6 0-.94-.02-1.02-.05-.17-.08-.25-.32-.25-.73 0-.22-.03-.55-.08-.99a8.64 8.64 0 0 1-.08-.97c0-.13.08-.22.26-.26.13-.03.32-.03.56 0l.45.05c1.88 0 2.83-.58 2.83-1.74 0-.55-.42-1.05-1.25-1.5a23.55 23.55 0 0 1-2.32-1.37 3.5 3.5 0 0 1-1.24-2.79c0-1.5.56-2.66 1.7-3.5a6.34 6.34 0 0 1 3.86-1.12.3.3 0 0 1 .3.2c.07.12.2.53.38 1.2.18.68.28 1.1.28 1.23 0 .11-.1.18-.29.21-.64.1-1.28.18-1.93.26-.77.2-1.15.63-1.15 1.25 0 .45.4.9 1.2 1.37 1.2.66 1.97 1.15 2.29 1.45a3.94 3.94 0 0 1 1.22 3m11.28-4.35a3 3 0 0 0-.98-2.2 3.09 3.09 0 0 0-2.2-.96c-.92 0-1.74.37-2.45 1.11a3.48 3.48 0 0 0-1.08 2.48c0 .22.18.32.54.32 1.48 0 3.25-.15 5.3-.45.58-.08.87-.18.87-.3m3.57.91c0 .74-.32 1.24-.96 1.48-.43.16-3.52.46-9.27.89.13.88.61 1.63 1.45 2.24.8.6 1.66.89 2.58.89 1.57 0 3.02-.51 4.34-1.53l.48-.39c.08 0 .13.01.16.03l.56 1.04c.35.68.52 1.04.52 1.09 0 .06-.08.17-.24.34a7.41 7.41 0 0 1-5.64 2.33c-2.32 0-4.17-.68-5.55-2.07-1.37-1.38-2.06-3.22-2.06-5.53 0-2.06.66-3.85 1.97-5.37a6.52 6.52 0 0 1 5.11-2.38 6.1 6.1 0 0 1 4.7 2.06 6.95 6.95 0 0 1 1.85 4.88m24.86 7.49c0 .39-.11.58-.34.58-.15 0-.38-.01-.68-.04a8.43 8.43 0 0 0-1.46-.02l-.77.03c-.2 0-.31-.23-.31-.7 0-.46.02-1.15.05-2.06a139.47 139.47 0 0 0 .02-6.28c-.08-1.03-.29-1.74-.63-2.12-.38-.42-1.08-.63-2.08-.63-.63 0-1.34.3-2.13.9-.81.62-1.24 1.25-1.27 1.85a99.18 99.18 0 0 0 .06 8.67c0 .27-.09.4-.27.4-.18 0-.44-.01-.78-.04a10.81 10.81 0 0 0-2.2.01c-.2 0-.3-.14-.3-.43 0-.48.02-1.2.05-2.16.03-.97.04-1.69.04-2.17v-3.6c0-1.13-.13-1.93-.4-2.41-.38-.68-1.1-1.02-2.17-1.02-.64 0-1.38.26-2.25.8-.96.57-1.44 1.15-1.44 1.74v4.37a222.33 222.33 0 0 0 .03 4.45c0 .29-.12.43-.34.43h-2.8c-.2 0-.3-.13-.3-.4a684.64 684.64 0 0 1 .03-7.29 26 26 0 0 0-.63-5.78c0-.13.05-.2.14-.22.37-.04.9-.11 1.61-.23.33-.1.83-.2 1.49-.33l.12-.01c.12 0 .23.35.33 1.06.1.7.2 1.05.28 1.05l.75-.66a8.8 8.8 0 0 1 1.77-1.21 5.5 5.5 0 0 1 2.54-.66c2.3 0 3.76.94 4.4 2.81a7.62 7.62 0 0 1 2.3-1.97 5.82 5.82 0 0 1 2.9-.84c1.85 0 3.13.54 3.84 1.62.5.8.76 2.06.76 3.78 0 .34 0 .84-.03 1.53a59.85 59.85 0 0 0 .02 4.37c.03 1.25.04 2.2.04 2.83m13.72-6.73a4.8 4.8 0 0 0-1.1-3.17 3.64 3.64 0 0 0-2.94-1.42c-1.2 0-2.2.47-3 1.41a4.71 4.71 0 0 0-1.15 3.17c0 1.21.38 2.26 1.15 3.15a3.82 3.82 0 0 0 5.93-.03 4.72 4.72 0 0 0 1.1-3.12m3.83-6.25l-.05.27a35.82 35.82 0 0 0-.58 5.9l.37 6.73.02.2c0 .3-.12.44-.4.44-.27 0-.69.03-1.24.1-.56.06-.97.1-1.24.1-.19 0-.33-.35-.43-1.05-.1-.7-.2-1.05-.29-1.05-.06 0-.33.2-.8.58-.6.48-1.15.85-1.65 1.1-.8.4-1.58.6-2.37.6a6.21 6.21 0 0 1-4.9-2.32 7.72 7.72 0 0 1-1.89-5.17c0-2.21.64-4.04 1.9-5.5a6.66 6.66 0 0 1 5.25-2.25c1.53 0 2.86.53 4 1.59.17.2.43.48.8.86l.08.05c.06 0 .15-.32.26-.94.1-.63.25-.95.42-.95.26 0 .77.08 1.51.23.82.18 1.23.34 1.23.48m10.78 10.79c0 .22-.02.52-.06.9l-.09.9c0 .19-.02.3-.04.34-.04.07-.14.14-.28.2-.83.4-2.11.6-3.87.6-2.34 0-3.5-1.07-3.5-3.18 0-.85.01-2.12.05-3.83.04-1.7.06-2.97.06-3.82 0-.4-.2-.63-.61-.66l-1.1-.01c-.2-.05-.31-.46-.31-1.23 0-.29.02-.6.06-.91.03-.24.2-.39.48-.44l.73-.01c.46-.02.7-.23.7-.62l-.04-1.82c-.03-.82-.04-1.44-.04-1.84 0-.73.14-1.1.42-1.1.09 0 1.03.16 2.82.47.22.03.34.14.34.33 0 .44-.03 1.1-.1 1.97-.06.88-.1 1.54-.1 1.98 0 .29.14.43.41.43h3.6c.16 0 .25.06.25.18s-.02.31-.05.58a4.81 4.81 0 0 0-.04 1.28l.01.69c0 .19-.14.28-.42.28-.4 0-1-.03-1.8-.08-.82-.05-1.42-.08-1.82-.08-.08 0-.14.28-.18.85-.05.7-.08 1.7-.08 2.98v2.23c0 .86.08 1.46.24 1.8.24.51.74.77 1.49.77.3 0 .76-.06 1.36-.2.6-.13 1.04-.2 1.33-.2.12 0 .18.09.18.27m11.27-6.2a3 3 0 0 0-.98-2.2 3.09 3.09 0 0 0-2.21-.96c-.92 0-1.74.37-2.45 1.11a3.48 3.48 0 0 0-1.07 2.48c0 .22.18.32.54.32 1.47 0 3.24-.15 5.3-.45.58-.08.87-.18.87-.3m3.56.91c0 .74-.32 1.24-.96 1.48-.42.16-3.52.46-9.27.89.13.88.62 1.63 1.46 2.24.8.6 1.65.89 2.57.89a6.95 6.95 0 0 0 4.82-1.92c.08 0 .14.01.16.03.03.02.21.37.56 1.04a10 10 0 0 1 .53 1.09c0 .06-.08.17-.24.34a7.41 7.41 0 0 1-5.65 2.33c-2.32 0-4.16-.68-5.54-2.07-1.38-1.38-2.07-3.22-2.07-5.53 0-2.06.66-3.85 1.98-5.37a6.52 6.52 0 0 1 5.1-2.38 6.1 6.1 0 0 1 4.7 2.06 6.95 6.95 0 0 1 1.85 4.88m13.34 7.77c0 .14-.11.24-.32.29a10.9 10.9 0 0 1-1.19-.02c-.78 0-1.26-.09-1.42-.27-.6-.9-1.54-2.24-2.78-4a2.38 2.38 0 0 0-.4-.47c-.1 0-.66.76-1.69 2.29-1.04 1.55-1.68 2.35-1.9 2.4-.22.03-.93.05-2.12.05-.24 0-.36-.09-.36-.27v-1.63c0-.1.66-.97 1.99-2.57 1.33-1.6 2-2.5 2-2.65 0-.15-.67-1.02-2-2.62s-2-2.48-2-2.64v-1.6c0-.2.13-.3.37-.3s.62.02 1.12.06c.5.04.87.06 1.12.06.14 0 .27.07.38.21.59.91 1.49 2.25 2.7 4.01a3 3 0 0 0 .38.5c.03 0 .14-.13.33-.4.58-.78 1.53-2.17 2.86-4.17.1-.14.22-.2.35-.2l1.1-.04 1.1-.03c.25 0 .38.1.38.3v1.57c0 .18-.67 1.07-2 2.67-1.34 1.6-2 2.47-2 2.63 0 .1.66.96 2 2.56 1.33 1.6 2 2.5 2 2.68v1.6m10.42-2.48c0 .22-.02.52-.06.9a29.12 29.12 0 0 0-.14 1.24c-.03.07-.13.14-.28.2-.82.4-2.1.6-3.87.6-2.33 0-3.5-1.07-3.5-3.18 0-.85.02-2.12.06-3.83.04-1.7.06-2.97.06-3.82 0-.4-.2-.63-.61-.66l-1.1-.01c-.2-.05-.31-.46-.31-1.23 0-.29.02-.6.06-.91.03-.24.19-.39.48-.44l.73-.01c.46-.02.69-.23.69-.62 0-.4-.01-1-.04-1.82l-.03-1.84c0-.73.14-1.1.42-1.1.08 0 1.02.16 2.81.47.23.03.35.14.35.33 0 .44-.04 1.1-.1 1.97-.07.88-.1 1.54-.1 1.98 0 .29.14.43.4.43h3.6c.17 0 .25.06.25.18s-.01.31-.05.58a4.87 4.87 0 0 0-.04 1.28l.02.69c0 .19-.14.28-.42.28-.4 0-1-.03-1.81-.08s-1.42-.08-1.82-.08c-.08 0-.14.28-.18.85-.05.7-.07 1.7-.07 2.98v2.23c0 .86.08 1.46.24 1.8.24.51.73.77 1.48.77.31 0 .77-.06 1.37-.2.6-.13 1.04-.2 1.33-.2.12 0 .18.09.18.27" fill="#00202F"/>
    <path d="M28.5 0a19 19 0 0 0-2.22.12C17.2 0 16.7 11.88 16.7 11.88c-.42 0-.95.05-1.32.31-2.43 1.85-.37 4.12-.37 4.12l-.52.46c-.13-.2-.26-.47-.35-.73-2.64-.06-3.7-.74-3.9-1.85-.27-1.32.47-2.8 1.74-2.75 1.85.06.95 1.22.68 1.22a.7.7 0 0 1-.52-.21c-.16-.16-.38-.06-.38.15 0 .53.59 1.27 1.75.7 1.06-.54 1.1-1.38.8-2.07a2.2 2.2 0 0 0-1.7-1.43l-.05-.15c0-.16-.16-.27-.27-.27l-.53-.05c-.15 0-.26.05-.31.21l-.05.26c-.48.06-.96.16-1.33.32l-.26-.21c-.1-.1-.26-.05-.37 0l-.37.32c-.1.1-.16.2-.1.37l.1.2a5.1 5.1 0 0 0-.8 1.01l-.15-.05c-.16-.05-.27.05-.37.16l-.21.47c-.06.1-.06.27.05.37l.16.21c-.37 1.43.05 3.17 2.43 4.76l.84.53-.1.52c-.05.16.05.37.21.43l.58.26c.15.05.3.05.44-.07-1.01 1.5-1.46 2.8-3.38 4.89a4.65 4.65 0 0 1-3.38 1.69 3 3 0 0 1-3.02-3.38A2.82 2.82 0 0 1 4.82 20c.15-.05.31-.05.47-.05 1.32 0 1.96 1.1 1.43 2.16 0 0-.42 1.06-1.27 1.11H5.4c-.8 0-.69-.9-.43-1.1.06-.06.16-.06.22-.06.15 0 .26.1.42.1.05 0 .1 0 .16-.05.37-.15.31-.47.31-.47-.05-.42-.37-.58-.79-.58-.26 0-.58.1-.8.2-.79.43-1 1.6-.47 2.33.32.48.85.74 1.48.74 1.11 0 2.49-.79 3.02-2.37.52-1.54-.64-4.12-3.34-4.12-.58 0-1.21.1-1.9.37-5.81 2.1-3.12 11.93 2.01 11.93.26 0 .48 0 .74-.05a7.75 7.75 0 0 0 3.07-1.43l.1.11c.1.1.21.16.32.16.1 0 .21-.05.32-.1l.47-.43c.16-.1.21-.32.16-.53l-.1-.31c.36-.32.68-.7 1-1l.16.1c.1.05.16.05.26.05.16 0 .27-.05.37-.16l.37-.47c.1-.16.16-.37.06-.53l-.16-.27c.31-.42.63-.79.95-1.16l.1.05c.06.06.16.06.27.06.16 0 .26-.06.37-.22l.37-.47c.1-.16.16-.37.05-.53l-.1-.21c.58-.69 1.05-1.1 1.42-1.1.21 0 .37.15.53.47.1.2.21.47.42.79l-.05.05c-.21.16-.26.42-.1.63l.31.53c.1.16.27.21.43.21h.2c.22.37.43.74.7 1.17-.22.15-.27.42-.11.63l.32.53c.1.16.26.2.42.2h.1l.16-.04c.21.37.48.74.74 1.1l-.05.06a.48.48 0 0 0-.05.63l.37.48c.1.1.21.2.37.2h.16l.1-.04c2.38 3.38 5.29 6.55 7.5 6.55h.11c3.97-.16 3.76-8.35.96-8.35-.16 0-.32 0-.48.05-1.8.53-1.7 2.75-1.7 2.75s.9-1.27 1.44-1.27c.42 0 .68.64.37 2.8-.11.8-.43 1.16-.8 1.16-2 0-6.97-9.66-6.97-11.35 0-.16.1-.21.26-.21.21 0 .48.1.9.26l-.1.37c-.06.21.05.47.26.58l.58.21c.05 0 .1.05.16.05.1 0 .26-.05.37-.15l.26-.32c.27.16.58.32.9.47l-.1.43c-.06.2.05.47.26.58l.58.2c.05 0 .1.06.16.06.1 0 .26-.05.37-.16l.26-.26c.37.21.8.42 1.22.69l-.1.37c-.06.2.05.47.26.58l.58.2c.05 0 .1.06.16.06.1 0 .26-.05.37-.16l.2-.2c.43.2.86.47 1.23.68l-.11.37c-.05.2.05.47.26.58l.59.21c.05 0 .1.05.15.05.1 0 .27-.05.37-.16l.22-.2c1.58.84 3.22 1.68 4.75 2.37 2.01.9 4.07 1.43 5.82 1.43 2.27 0 4.07-.9 4.5-3.23 0-.05 0-.15.04-.2l.22-.06c.2-.05.42-.26.42-.42l.05-.48c.1-.2 0-.31-.16-.37h-.31c0-.58-.11-1.05-.22-1.53l.16-.21c.16-.21.16-.48.06-.58l-.27-.37c-.05-.05-.32-.1-.58-.1h-.05a4 4 0 0 0-1.11-1.01l-.1-.48c-.06-.2-.22-.42-.43-.47l-.48-.05c-.1 0-.37.2-.53.42-.31-.06-.63-.1-1-.1-1.74 0-3.38.89-3.54 2.58-.06.74-.06 1.64 1.48 2.54.42.26.9.37 1.32.37 1.27 0 2.43-.8 2.11-1.96-.2-.9-.84-1.21-1.48-1.21-.47 0-.9.2-1.1.42-.38.53-.11 1.16.26 1.16s.26-.32.26-.32c-.2-.37.05-.52.42-.52.32 0 .7.15.7.58.04.58-.7.79-.96.84h-.05c-1.7 0-1.64-1.58-1.32-1.95a2.12 2.12 0 0 1 1.74-.95c1.53 0 2.96 1.63 2.01 3.59a2 2 0 0 1-2 1.27c-.7 0-1.65-.21-2.92-.8-4.33-1.86-10.4-4.68-11.87-7.26.93.25 2.3.56 2.78.71v.37c0 .16.1.32.27.37l.58.22c.16.05.37 0 .47-.16l.21-.32c.43.1.9.16 1.38.21l.16.48a.4.4 0 0 0 .37.26l.63-.05c.16 0 .32-.16.37-.32l.05-.32c.53-.05 1.06-.1 1.59-.26l.37.37c.1.1.32.16.48.1l.58-.26a.36.36 0 0 0 .2-.42l-.04-.42a5.6 5.6 0 0 0 1.05-.64c4.39-2.9 2.17-5.33.74-6.5-1.37-1.16.21-2.27 1.9-2.27.48 0 1.33.06 1.86.1.1 0 .15-.15.05-.2a4.6 4.6 0 0 0-3.49-.58l-.1-.1c-.11-.11-.22-.17-.38-.11l-.47.2c-.16.06-.21.22-.21.32v.16c-.27.16-.48.32-.64.53l-.2-.1a.22.22 0 0 0-.19 0c1.02-2.9-.65-6.38-.65-6.38C36.18.68 31.39.02 28.5 0zm9.09 12.01a.3.3 0 0 0 .05.08l.1.1c-.15.37-.2.69-.2 1l-.21.22c-.11.1-.11.26-.06.37l.27.47c.05.1.2.21.37.16l.2-.05c.48.53 1.07.84.9 1.74-.2 1.16-1.47 1.9-4.64 1.85-1.67-.04-3.93-1-5.09-1.6.63-.25 1.34-.45 2.1-.78.93-.13 2.32-.49 4.49-1.83a4.98 4.98 0 0 0 1.72-1.73zm-13.32 1.24a2 2 0 1 1 0 4.01 2 2 0 0 1 0-4.01z" fill="#00A1ED"/>
    <path d="M27.56 14.62s-.27 1.48 1.16 1.48 1.16-1.48 1.16-1.48c-1.21.74-2.32 0-2.32 0" fill="#00A1ED"/>
</svg>
