<svg xmlns="http://www.w3.org/2000/svg" height="365.4" width="2088.3" id="Layer_1">
  <style id="style237">
    .Logo__bracket{fill:#fff}.Logo__work{fill:#66f}
  </style>
  <path id="path239" d="M86 34.2H35.3v297.1H86v34.1H0V.1h86z" class="Logo__bracket"/>
  <path transform="translate(-1055.8 -978)" class="Logo__work"/>
  <path id="path243" d="M629 40.7h37.7v284.1H629z" class="Logo__work"/>
  <path id="path245" d="M877 78.5c28.4-28.8 63.3-43 104.3-43s75.9 14.2 104.3 43c28.8 28.4 43 63.3 43 104.3s-14.2 75.5-43 104.3c-28.4 28.8-63.3 43-104.3 43s-75.9-14.2-104.3-43c-28.4-28.8-42.6-63.3-42.6-104.3s14.2-75.9 42.6-104.3zm182.2 25.5c-20.7-21.5-46.7-32.1-77.9-32.1-31.2 0-57.2 10.6-78.3 32.1-20.7 21.1-31.2 47.5-31.2 78.7 0 31.2 10.6 57.2 31.2 78.7 21.1 21.1 47.1 31.7 78.3 31.7 31.2 0 57.2-10.6 77.9-31.7 21.1-21.5 31.7-47.5 31.7-78.7 0-31.2-10.6-57.6-31.7-78.7z" class="Logo__work"/>
  <path id="path247" d="M1357.5 324.8L1256 40.7h40.6l82.4 237 82-237h41l-101.9 284.1z" class="Logo__work"/>
  <path transform="translate(-1055.8 -978)" class="Logo__work"/>
  <path id="path251" d="M2088.3.1v365.2h-86v-34.1h50.7V34.1h-50.7V0h86z" class="Logo__bracket"/>
</svg>