<svg xmlns="http://www.w3.org/2000/svg" width="130" height="51.254" id="svg2">
  <g transform="matrix(1.25 0 0 -1.25 -193.463 442.74)" id="g10">
    <path d="M200.538 338.655c-2.38 0-4.861-1.738-4.861-1.738v1.117c0 .245-.098.343-.343.343h-3.037c-.245 0-.392-.147-.392-.343v-23.826c0-.246.098-.393.343-.393h3.087c.195 0 .342.147.342.393v20.394s1.433.909 3.172.909c1.657 0 2.965-.823 2.965-2.51v-18.793c0-.246.147-.393.392-.393h3.036c.245 0 .343.196.343.393v19.86c0 2.992-1.838 4.587-5.047 4.587z" id="path38" fill="#010202"/>
    <path d="M224.166 350.606h-3.038c-.245 0-.392-.147-.392-.343v-12.02c-1.166.448-2.227.684-3.085.684-4.933 0-8.32-4.72-8.32-13.794 0-7.775 3.294-11.945 7.594-11.945 1.812 0 3.308 1.04 4.403 2.014l.663-1.124c.112-.195.204-.262.428-.262l1.747-.002c.196 0 .343.148.343.393v36.056c0 .245-.098.343-.343.343zm-10.818-24.67c0 5 1.462 9.951 4.449 9.951 1.011 0 1.983-.333 2.94-1.093v-17.617c-.748-.408-1.69-.784-2.707-.784-3.247 0-4.682 3.855-4.682 9.542z" id="path40" fill="#010202"/>
    <path d="M235.802 338.878c-5.059 0-7.556-6.622-7.556-13.83 0-7.542 3.561-11.77 8.14-11.77 2.013 0 4.016.792 5.33 1.523.2.112.237.27.188.464l-.384 1.594c-.048.195-.145.292-.389.292-.107 0-1.766-.486-3.381-.486-3.747 0-5.465 3.333-5.465 7.76v1.076s1.862-.257 2.981-.257h7.069v2.044c0 7.548-2.641 11.59-6.533 11.59zm-.244-10.567c-1.119 0-3.155-.276-3.155-.276s.027.812.125 1.591c.438 4.14 1.424 6.233 3.127 6.233 1.481 0 2.495-2.142 2.739-5.892.048-.78.048-1.656.048-1.656h-2.884z" id="path42" fill="#010202"/>
    <path d="M186.136 335.783c-1.124 2.215-3.124 3.183-5.416 3.183-1.472 0-3.77-.564-5.305-1.254-.3-.135-.49-.254-.49-.49 0-.14.07-.302.147-.442l1.034-2.215c.107-.25.277-.307.418-.307.153 0 .278.072.415.16 1.497.958 2.593 1.484 3.461 1.484 1.149 0 1.928-.762 2.41-1.909.447-1.068.62-2.544.62-4.25l.002-.5c-.944.59-2.578.916-3.393.916-4.389 0-6.756-4.173-6.756-8.636 0-4.808 2.766-8.335 6.09-8.335 1.852 0 3.528 1.088 4.65 2.459 0 0 .598-1.426.676-1.597.078-.17.161-.234.386-.234l1.776-.002c.196 0 .343.148.343.393v13.822c0 3.396-.172 5.987-1.068 7.754zm-2.705-18.108c-.87-.84-1.912-1.281-2.85-1.281-.938 0-1.662.433-2.243 1.236-.708.977-1.038 2.481-1.038 4.148 0 2.636.973 5.34 3.034 5.34 1.02 0 2.14-.332 3.098-1.093v-8.35z" id="path44" fill="#010202"/>
    <path d="M258.376 338.38h-2.707a.524.524 0 0 1-.535-.364c-.171-.45-1.315-3.466-1.785-4.716-.334-.892-1.235-3.448-1.235-3.448h-.105c-.003.01-.663 1.86-1.02 2.787-.29.75-1.797 4.727-1.988 5.217-.102.263-.216.524-.604.524h-2.964c-.326 0-.51-.357-.405-.58.106-.222 4.828-10.987 4.828-10.987s-5.071-12.054-5.22-12.325c-.148-.27.039-.672.4-.672h2.597c.442 0 .616.232.75.606.372 1.046.928 2.502 1.716 4.752.521 1.49 1.346 4.107 1.346 4.107h.09s.904-2.667 1.24-3.539c.849-2.205 1.934-5.085 2.05-5.389.12-.318.287-.537.591-.537h2.946c.291 0 .426.333.29.623-.329.691-3.126 7.494-5.068 11.966 0 0 5.04 11.134 5.14 11.409.098.275.068.566-.348.566z" id="path46" fill="#010202"/>
    <path d="M176.351 354.192h-3.415c-.302 0-.491-.149-.535-.364-.043-.217-5.12-15.71-5.49-17.001a463.82 463.82 0 0 1-1.32-4.915l-1.765 4.825c-.43 1.328-4.542 12.826-4.663 13.286-.066.252-.182.566-.624.566h-3.334c-.326 0-.51-.358-.405-.58.084-.177 6.106-16.21 8.538-22.335v-13.466c0-.246.099-.393.343-.393h3.158c.196 0 .342.147.342.393V327.568c2.028 5.668 9.436 25.832 9.517 26.057.098.276.069.567-.347.567z" id="path48" fill="#e52620"/>
  </g>
</svg>